<svg width="19" height="19" viewBox="0 0 19 19" fill="none" xmlns="http://www.w3.org/2000/svg">
<path fill-rule="evenodd" clip-rule="evenodd" d="M13.7241 1.03C13.349 0.655058 12.8404 0.444427 12.3101 0.444427C11.7798 0.444427 11.2711 0.655058 10.8961 1.03L0.582094 11.344C0.206995 11.719 -0.00379298 12.2276 -0.00390625 12.758V17.991C-0.00390625 18.548 0.449094 19.001 1.00609 19.001L17.0001 19C17.2653 19 17.5197 18.8946 17.7072 18.7071C17.8947 18.5196 18.0001 18.2652 18.0001 18C18.0001 17.7348 17.8947 17.4804 17.7072 17.2929C17.5197 17.1054 17.2653 17 17.0001 17H9.06809L17.9671 8.101C18.342 7.72594 18.5527 7.21733 18.5527 6.687C18.5527 6.15667 18.342 5.64806 17.9671 5.273L13.7241 1.03ZM6.24009 17L16.5531 6.687L12.3101 2.444L1.99609 12.758V17H6.24009Z" fill="#373737"/>
</svg>
