<svg width="71" height="76" viewBox="0 0 71 76" fill="none" xmlns="http://www.w3.org/2000/svg">
<path d="M33.5433 1.61065e-05C34.5217 -2.01331e-05 36.8977 1.61065e-05 36.8977 1.61065e-05C37.0824 3.8141 38.5373 9.30066 39.6316 13.4278C40.193 15.5446 40.6594 17.3039 40.8111 18.2963C41.3701 20.642 42.2087 26.2904 41.0906 30.1185C40.3079 32.7082 39.1805 34.2938 38.7146 34.763C38.901 35.3259 40.0284 36.48 43.0473 36.5926C43.3268 36.603 49.1969 36.405 51.1536 36.3111L71 35.7482L46.5414 50.9482L44.8642 48.1334C46.9141 46.7729 50.8461 43.6297 50.1752 41.9408C49.3366 39.8297 44.5847 39.8297 41.3701 40.5334C38.7774 41.1009 37.1848 41.8516 36.3723 42.3423C37.3201 45.8085 37.4566 54.6238 37.4566 56.0148C37.4566 56.0148 37.1771 74.3111 37.4566 76C36.4783 76 34.1023 76 34.1023 76C33.9176 72.1859 32.4627 66.6993 31.3684 62.5722C30.8071 60.4554 30.3406 58.6962 30.1889 57.7037C29.6299 55.358 28.7913 49.7096 29.9094 45.8815C30.6921 43.2918 31.8195 41.7062 32.2854 41.237C32.099 40.6741 30.9716 39.52 27.9527 39.4074C27.6732 39.397 21.8031 39.595 19.8464 39.6889L0 40.2518L24.4586 25.0518L26.1358 27.8666C24.0859 29.2271 20.1539 32.3703 20.8248 34.0592C21.6634 36.1703 26.4153 36.1703 29.6299 35.4666C32.2226 34.8991 33.8152 34.1484 34.6277 33.6577C33.6799 30.1915 33.5433 21.3762 33.5433 19.9852C33.5433 19.9852 33.8229 1.68889 33.5433 1.61065e-05Z" fill="#373737"/>
</svg>
