<svg width="17" height="17" viewBox="0 0 17 17" fill="none" xmlns="http://www.w3.org/2000/svg">
<path d="M15.75 0.0416718C16.0705 0.0416718 16.3778 0.168978 16.6044 0.395585C16.831 0.622191 16.9583 0.929535 16.9583 1.25001V10.9167C16.9583 11.2371 16.831 11.5445 16.6044 11.7711C16.3778 11.9977 16.0705 12.125 15.75 12.125C15.4295 12.125 15.1222 11.9977 14.8956 11.7711C14.669 11.5445 14.5417 11.2371 14.5417 10.9167V4.16692L2.51875 16.1898C2.29086 16.4099 1.98563 16.5317 1.66881 16.529C1.35199 16.5262 1.04893 16.3992 0.82489 16.1751C0.600855 15.9511 0.473777 15.648 0.471023 15.3312C0.46827 15.0144 0.590064 14.7092 0.810171 14.4813L12.8331 2.45834H6.08334C5.76287 2.45834 5.45552 2.33103 5.22892 2.10443C5.00231 1.87782 4.875 1.57048 4.875 1.25001C4.875 0.929535 5.00231 0.622191 5.22892 0.395585C5.45552 0.168978 5.76287 0.0416718 6.08334 0.0416718H15.75Z" fill="#373737"/>
</svg>
